<svg xmlns="http://www.w3.org/2000/svg" fill-rule="evenodd" stroke-miterlimit="10" clip-rule="evenodd" viewBox="0 0 1796.1875 583.99998">
  <path fill="none" d="M-1.5322187.70984391H1918.4678V1080.7098H-1.5322187z"/>
  <text x="597.69739" y="345.04831" font-family="ExpletusSans-Bold, 'Expletus Sans'" font-size="309.54" font-weight="700">
    Azumao
  </text>
  <path fill-rule="nonzero" d="M305.58 377l-20.5 36H261l-20.5-36 32.54-70.41z"/>
  <path fill-rule="nonzero" d="M273.04 306.59L305.58 377l-20.5 36H261l-20.5-36z"/>
  <path fill-rule="nonzero" d="M441 532h-25l-57-102-56 102h-60l-56-102-57 102h-25l-47-83 58.96-128 .02.04.02-.04 29.5 63.5L273 111.65 399.5 384.5 429 321l.02.04.02-.04L488 449zm-11.96-334.91L396.5 267.5 273 0 149.5 267.5l-32.54-70.41L0 451l75 133h82.8l28.68-52 28.67 52h115.7l28.67-52 28.68 52H471l75-133z"/>
  <path fill-rule="nonzero" d="M305.58 377l-20.5 36H261l-20.5-36 32.54-70.41z"/>
  <path fill="none" stroke="#7181d2" stroke-width="2.99776" d="M1794.6886 391.5H607.5474v43h1187.1412z"/>
  <path d="M1388.9386 401h-770.562v24h770.562z"/>
</svg>